<svg width="44" height="48" viewBox="0 0 44 48" fill="none" xmlns="http://www.w3.org/2000/svg">
<path fill-rule="evenodd" clip-rule="evenodd" d="M21.6174 0C33.5568 0 43.2349 9.67813 43.2349 21.6174C43.2349 33.5568 33.5568 43.2349 21.6174 43.2349C9.67813 43.2349 0 33.5568 0 21.6174C0 9.67813 9.67813 0 21.6174 0ZM21.6174 4.32349C17.0308 4.32349 12.632 6.14553 9.38877 9.38877C6.14553 12.632 4.32349 17.0308 4.32349 21.6174C4.32349 26.2041 6.14553 30.6029 9.38877 33.8461C12.632 37.0894 17.0308 38.9114 21.6174 38.9114C26.2041 38.9114 30.6029 37.0894 33.8461 33.8461C37.0894 30.6029 38.9114 26.2041 38.9114 21.6174C38.9114 17.0308 37.0894 12.632 33.8461 9.38877C30.6029 6.14553 26.2041 4.32349 21.6174 4.32349ZM21.6174 23.7792C24.3564 23.7792 26.864 24.8017 28.7685 26.4814C29.1985 26.8609 29.4601 27.3957 29.4958 27.9682C29.5315 28.5406 29.3383 29.1038 28.9587 29.5338C28.5792 29.9638 28.0444 30.2254 27.4719 30.261C26.8995 30.2967 26.3363 30.1035 25.9064 29.724C24.7218 28.6793 23.1968 28.1028 21.6174 28.1027C19.9724 28.1027 18.4721 28.7123 17.3285 29.724C17.1156 29.9118 16.8678 30.0558 16.5992 30.1478C16.3307 30.2398 16.0466 30.278 15.7633 30.2603C15.4799 30.2425 15.2029 30.1691 14.9479 30.0443C14.6929 29.9194 14.465 29.7456 14.2772 29.5327C14.0895 29.3198 13.9454 29.0719 13.8534 28.8034C13.7614 28.5348 13.7232 28.2507 13.741 27.9674C13.7587 27.6841 13.8321 27.407 13.957 27.152C14.0818 26.897 14.2556 26.6692 14.4686 26.4814C16.4429 24.7401 18.9849 23.7793 21.6174 23.7792ZM14.0513 12.9705C14.9113 12.9705 15.7361 13.3121 16.3442 13.9202C16.9523 14.5283 17.294 15.3531 17.294 16.2131C17.294 17.0731 16.9523 17.8979 16.3442 18.506C15.7361 19.1141 14.9113 19.4557 14.0513 19.4557C13.1913 19.4557 12.3666 19.1141 11.7585 18.506C11.1504 17.8979 10.8087 17.0731 10.8087 16.2131C10.8087 15.3531 11.1504 14.5283 11.7585 13.9202C12.3666 13.3121 13.1913 12.9705 14.0513 12.9705ZM29.1836 12.9705C30.0436 12.9705 30.8683 13.3121 31.4764 13.9202C32.0845 14.5283 32.4262 15.3531 32.4262 16.2131C32.4262 17.0731 32.0845 17.8979 31.4764 18.506C30.8683 19.1141 30.0436 19.4557 29.1836 19.4557C28.3236 19.4557 27.4988 19.1141 26.8907 18.506C26.2826 17.8979 25.9409 17.0731 25.9409 16.2131C25.9409 15.3531 26.2826 14.5283 26.8907 13.9202C27.4988 13.3121 28.3236 12.9705 29.1836 12.9705Z" fill="white"/>
</svg>
