<svg width="21" height="21" viewBox="0 0 21 21" fill="none" xmlns="http://www.w3.org/2000/svg">
<g clip-path="url(#clip0_39_778)">
<path d="M9.63374 0.851406C9.3767 0.852207 9.09244 0.967514 8.833 1.22615L4.25355 6.40616H0.800743C0.359534 6.40616 0 6.76569 0 7.2069V13.6128C0 14.0541 0.359534 14.4136 0.800743 14.4136H4.25435L8.80817 19.5688C9.60892 20.3695 10.4097 19.9595 10.4097 18.8681V1.82591C10.4097 1.19252 10.0629 0.847403 9.63374 0.849805V0.851406ZM15.4391 2.45289C15.2688 2.4826 15.1127 2.56663 14.9941 2.69241C14.8755 2.81819 14.8008 2.97898 14.7812 3.15073C14.7615 3.32248 14.798 3.49598 14.8851 3.6453C14.9723 3.79461 15.1054 3.91171 15.2646 3.97911C16.456 4.57779 17.457 5.49664 18.1553 6.63255C18.8536 7.76846 19.2215 9.0765 19.2178 10.4099C19.2178 13.2317 17.6163 15.6547 15.2638 16.8406C15.1567 16.8779 15.0588 16.9375 14.9765 17.0154C14.8941 17.0933 14.8293 17.1878 14.7862 17.2927C14.7431 17.3975 14.7228 17.5103 14.7266 17.6236C14.7304 17.7369 14.7582 17.8481 14.8081 17.9498C14.8581 18.0516 14.9291 18.1416 15.0164 18.2138C15.1038 18.2861 15.2054 18.339 15.3147 18.369C15.424 18.3991 15.5385 18.4056 15.6505 18.3881C15.7625 18.3706 15.8695 18.3295 15.9644 18.2676C18.8415 16.8158 20.8193 13.8435 20.8193 10.4099C20.8193 6.97629 18.8407 4.00393 15.9644 2.55218C15.8274 2.4757 15.6709 2.44118 15.5144 2.45289C15.4893 2.45171 15.4642 2.45171 15.4391 2.45289ZM13.5374 5.55497C13.3649 5.56763 13.2013 5.63575 13.0708 5.74915C12.9403 5.86255 12.85 6.01514 12.8134 6.1841C12.7768 6.35307 12.7959 6.52934 12.8678 6.68656C12.9397 6.84378 13.0605 6.97351 13.2123 7.05636C14.4478 7.82428 15.2141 9.04061 15.2141 10.4099C15.2141 11.7888 14.4358 13.0211 13.1874 13.7882C13.0894 13.8394 13.003 13.9103 12.9337 13.9965C12.8644 14.0827 12.8137 14.1824 12.7848 14.2892C12.7559 14.3959 12.7495 14.5075 12.7659 14.6169C12.7823 14.7263 12.8212 14.8311 12.8802 14.9247C12.9391 15.0184 13.0168 15.0987 13.1083 15.1608C13.1999 15.2229 13.3033 15.2654 13.412 15.2855C13.5208 15.3057 13.6326 15.303 13.7403 15.2778C13.848 15.2526 13.9493 15.2054 14.0378 15.1391C15.6954 14.1221 16.8156 12.3925 16.8156 10.4099C16.8156 8.43925 15.705 6.70003 14.0626 5.68069C13.9285 5.59498 13.7718 5.55121 13.6126 5.55497C13.5876 5.55379 13.5624 5.55379 13.5374 5.55497Z" fill="white"/>
</g>
<defs>
<clipPath id="clip0_39_778">
<rect width="20.8193" height="20.8193" fill="white"/>
</clipPath>
</defs>
</svg>
