<svg width="37" height="44" viewBox="0 0 37 44" fill="none" xmlns="http://www.w3.org/2000/svg">
<path d="M0.417217 3.73122C0.506202 2.70945 0.976223 1.75853 1.73393 1.06729C2.49164 0.376064 3.48162 -0.00490513 4.50724 4.76924e-05C5.48002 4.76924e-05 6.37931 0.33728 7.0862 0.901495C7.84287 0.31722 8.77186 0.000209433 9.72785 4.76924e-05C10.7223 4.76924e-05 11.6388 0.335118 12.3695 0.901495C13.1011 0.315542 14.0111 -0.00254594 14.9485 4.76924e-05C17.0583 4.76924e-05 18.8547 1.59325 19.0385 3.73122C19.2201 5.83892 19.4557 9.09883 19.4557 11.8896C19.4559 13.566 19.0229 15.2139 18.1988 16.6736C17.3746 18.1333 16.1872 19.3553 14.7517 20.221C14.2718 20.5107 14.1465 20.8695 14.1594 21.0554C14.434 25.2363 15.1322 36.0839 15.1322 37.8241C15.1322 39.2574 14.5628 40.632 13.5493 41.6456C12.5358 42.6591 11.1612 43.2285 9.72785 43.2285C8.29453 43.2285 6.91991 42.6591 5.90639 41.6456C4.89288 40.632 4.32349 39.2574 4.32349 37.8241C4.32349 36.0839 5.02173 25.2363 5.29627 21.0554C5.30708 20.8674 5.18386 20.5107 4.70396 20.221C3.2685 19.3553 2.0811 18.1333 1.25694 16.6736C0.432768 15.2139 -0.000207358 13.566 7.44982e-08 11.8896C7.44982e-08 9.10099 0.23563 5.83892 0.417217 3.73122ZM14.0513 11.3492C14.0513 11.7792 13.8805 12.1916 13.5765 12.4956C13.2724 12.7997 12.86 12.9705 12.43 12.9705C12 12.9705 11.5876 12.7997 11.2836 12.4956C10.9795 12.1916 10.8087 11.7792 10.8087 11.3492V4.32354C10.8087 4.03687 10.6948 3.76195 10.4921 3.55925C10.2894 3.35654 10.0145 3.24266 9.72785 3.24266C9.44119 3.24266 9.16626 3.35654 8.96356 3.55925C8.76086 3.76195 8.64698 4.03687 8.64698 4.32354V11.3492C8.64698 11.7792 8.47616 12.1916 8.17211 12.4956C7.86805 12.7997 7.45567 12.9705 7.02567 12.9705C6.59567 12.9705 6.18329 12.7997 5.87923 12.4956C5.57518 12.1916 5.40436 11.7792 5.40436 11.3492V4.13979C5.40436 3.90186 5.30984 3.67367 5.1416 3.50543C4.97336 3.33718 4.74517 3.24266 4.50724 3.24266C4.2936 3.23895 4.08641 3.31587 3.92695 3.4581C3.7675 3.60032 3.66749 3.79741 3.64686 4.01008C3.46744 6.09617 3.24262 9.24151 3.24262 11.8896C3.24262 14.2459 4.49643 16.3083 6.38147 17.4453C7.55962 18.1587 8.64482 19.5206 8.53241 21.2673C8.25138 25.5475 7.56611 36.2222 7.56611 37.8263C7.56611 38.3996 7.79386 38.9494 8.19927 39.3548C8.60467 39.7603 9.15452 39.988 9.72785 39.988C10.3012 39.988 10.851 39.7603 11.2564 39.3548C11.6618 38.9494 11.8896 38.3996 11.8896 37.8263C11.8896 36.2222 11.2043 25.5475 10.9233 21.2673C10.8109 19.5206 11.8961 18.1587 13.0742 17.4453C14.032 16.8684 14.8243 16.0537 15.3742 15.0802C15.9242 14.1068 16.2132 13.0077 16.2131 11.8896C16.2131 9.24367 15.9883 6.09617 15.8088 4.01008C15.7882 3.79741 15.6882 3.60032 15.5288 3.4581C15.3693 3.31587 15.1621 3.23895 14.9485 3.24266C14.7105 3.24266 14.4823 3.33718 14.3141 3.50543C14.1459 3.67367 14.0513 3.90186 14.0513 4.13979V11.3492ZM21.6174 12.4301C21.6174 9.13343 22.927 5.9718 25.2581 3.64072C27.5892 1.30964 30.7508 4.76924e-05 34.0475 4.76924e-05C34.4775 4.76924e-05 34.8899 0.170863 35.1939 0.474918C35.498 0.778972 35.6688 1.19136 35.6688 1.62136V19.9962C35.6688 20.6836 35.8979 24.0927 36.1552 27.8693L36.166 28.0487C36.447 32.1733 36.7497 36.6589 36.7497 37.8241C36.7497 39.2574 36.1803 40.632 35.1668 41.6456C34.1532 42.6591 32.7786 43.2285 31.3453 43.2285C29.912 43.2285 28.5374 42.6591 27.5238 41.6456C26.5103 40.632 25.9409 39.2574 25.9409 37.8241C25.9409 36.713 26.2176 32.1798 26.4857 28.0227C26.6197 25.9237 26.7559 23.8895 26.8575 22.3806L26.9072 21.6175H25.4005C24.9037 21.6175 24.4118 21.5196 23.9528 21.3295C23.4938 21.1394 23.0768 20.8608 22.7255 20.5095C22.3742 20.1582 22.0955 19.7411 21.9054 19.2822C21.7153 18.8232 21.6174 18.3312 21.6174 17.8344V12.4301ZM30.2601 20.1086L30.2147 20.7874C30.0443 23.2687 29.8793 25.7504 29.7197 28.2324C29.4473 32.4695 29.1836 36.8492 29.1836 37.8241C29.1836 38.3974 29.4113 38.9473 29.8167 39.3527C30.2221 39.7581 30.772 39.9858 31.3453 39.9858C31.9186 39.9858 32.4685 39.7581 32.8739 39.3527C33.2793 38.9473 33.507 38.3974 33.507 37.8241C33.507 36.7865 33.2087 32.3635 32.9191 28.0876L32.9039 27.8628C32.6596 24.2764 32.4262 20.8112 32.4262 19.9962V3.38534C30.3043 3.76576 28.3837 4.88021 27.0006 6.53368C25.6174 8.18716 24.8597 10.2744 24.8601 12.4301V17.8344C24.8601 18.1328 25.1022 18.3749 25.4005 18.3749H28.6431C28.8655 18.3749 29.0854 18.4207 29.2893 18.5094C29.4932 18.5981 29.6767 18.7278 29.8284 18.8904C29.98 19.053 30.0966 19.245 30.1709 19.4546C30.2451 19.6642 30.2755 19.8868 30.2601 20.1086Z" fill="white"/>
</svg>
