<svg width="50" height="50" viewBox="0 0 50 50" fill="none" xmlns="http://www.w3.org/2000/svg">
<path d="M16.1946 16.1946C16.6634 15.7259 17.2992 15.4626 17.9621 15.4626C18.625 15.4626 19.2608 15.7259 19.7296 16.1946L25.1146 21.5771L30.4971 16.1946C30.7277 15.9558 31.0036 15.7654 31.3086 15.6344C31.6136 15.5033 31.9417 15.4344 32.2736 15.4315C32.6056 15.4286 32.9348 15.4919 33.242 15.6176C33.5492 15.7433 33.8284 15.9289 34.0631 16.1636C34.2978 16.3984 34.4835 16.6775 34.6092 16.9847C34.7349 17.292 34.7981 17.6212 34.7952 17.9531C34.7924 18.2851 34.7234 18.6131 34.5924 18.9181C34.4613 19.2231 34.2709 19.499 34.0321 19.7296L28.6496 25.1146L34.0321 30.4971C34.4875 30.9686 34.7395 31.6001 34.7338 32.2556C34.7281 32.9111 34.4652 33.5381 34.0017 34.0017C33.5381 34.4652 32.9111 34.7281 32.2556 34.7338C31.6001 34.7395 30.9686 34.4875 30.4971 34.0321L25.1146 28.6496L19.7296 34.0321C19.2563 34.4766 18.6286 34.7195 17.9794 34.7094C17.3302 34.6993 16.7104 34.437 16.2511 33.9781C15.7918 33.5191 15.5291 32.8995 15.5186 32.2503C15.508 31.6011 15.7505 30.9732 16.1946 30.4996L21.5771 25.1171L16.1946 19.7321C15.7259 19.2633 15.4626 18.6275 15.4626 17.9646C15.4626 17.3017 15.7259 16.6659 16.1946 16.1971" fill="white"/>
<path fill-rule="evenodd" clip-rule="evenodd" d="M25 0C11.1925 0 0 11.1925 0 25C0 38.8075 11.1925 50 25 50C38.8075 50 50 38.8075 50 25C50 11.1925 38.8075 0 25 0ZM5 25C5 19.6957 7.10714 14.6086 10.8579 10.8579C14.6086 7.10714 19.6957 5 25 5C30.3043 5 35.3914 7.10714 39.1421 10.8579C42.8929 14.6086 45 19.6957 45 25C45 30.3043 42.8929 35.3914 39.1421 39.1421C35.3914 42.8929 30.3043 45 25 45C19.6957 45 14.6086 42.8929 10.8579 39.1421C7.10714 35.3914 5 30.3043 5 25Z" fill="white"/>
</svg>
