<svg width="20" height="20" viewBox="0 0 20 20" fill="none" xmlns="http://www.w3.org/2000/svg">
<path d="M8.75192 16.5736C8.97693 16.7983 9.28192 16.9245 9.59993 16.9245C9.91793 16.9245 10.2229 16.7983 10.4479 16.5736L14.9751 12.0488C15.2002 11.8236 15.3267 11.5183 15.3267 11.2C15.3267 10.8816 15.2002 10.5763 14.9751 10.3512C14.75 10.126 14.4447 9.99957 14.1263 9.99957C13.808 9.99957 13.5026 10.126 13.2775 10.3512L10.7999 12.828V3.59996C10.7999 3.2817 10.6735 2.97647 10.4485 2.75143C10.2234 2.52638 9.91818 2.39996 9.59993 2.39996C9.28167 2.39996 8.97644 2.52638 8.7514 2.75143C8.52635 2.97647 8.39993 3.2817 8.39993 3.59996V12.828L5.92312 10.3512C5.81166 10.2397 5.67933 10.1513 5.53369 10.0909C5.38806 10.0306 5.23196 9.99957 5.07433 9.99957C4.91669 9.99957 4.7606 10.0306 4.61496 10.0909C4.46932 10.1513 4.33699 10.2397 4.22552 10.3512C4.11406 10.4626 4.02564 10.595 3.96532 10.7406C3.90499 10.8862 3.87394 11.0423 3.87394 11.2C3.87394 11.3576 3.90499 11.5137 3.96532 11.6593C4.02564 11.805 4.11406 11.9373 4.22552 12.0488L8.75192 16.5736Z" fill="url(#paint0_linear_32_391)"/>
<defs>
<linearGradient id="paint0_linear_32_391" x1="17.158" y1="23.8686" x2="-5.86" y2="14.8884" gradientUnits="userSpaceOnUse">
<stop stop-color="#E21E1E"/>
<stop offset="1" stop-color="#F6924F"/>
</linearGradient>
</defs>
</svg>
