<svg width="44" height="48" viewBox="0 0 44 48" fill="none" xmlns="http://www.w3.org/2000/svg">
<path fill-rule="evenodd" clip-rule="evenodd" d="M21.6174 4.32349C17.0308 4.32349 12.632 6.14553 9.38877 9.38877C6.14553 12.632 4.32349 17.0308 4.32349 21.6174C4.32349 26.2041 6.14553 30.6029 9.38877 33.8461C12.632 37.0894 17.0308 38.9114 21.6174 38.9114C26.2041 38.9114 30.6029 37.0894 33.8461 33.8461C37.0894 30.6029 38.9114 26.2041 38.9114 21.6174C38.9114 17.0308 37.0894 12.632 33.8461 9.38877C30.6029 6.14553 26.2041 4.32349 21.6174 4.32349ZM0 21.6174C0 9.67813 9.67813 0 21.6174 0C33.5568 0 43.2349 9.67813 43.2349 21.6174C43.2349 33.5568 33.5568 43.2349 21.6174 43.2349C9.67813 43.2349 0 33.5568 0 21.6174ZM14.0513 17.294C13.6298 17.294 13.0915 17.562 12.7413 18.2624C12.4818 18.7704 12.0321 19.1552 11.49 19.333C10.948 19.5108 10.3577 19.4672 9.84773 19.2116C9.33776 18.9561 8.94946 18.5093 8.76746 17.9687C8.58546 17.4281 8.62452 16.8374 8.87612 16.3255C9.81864 14.4405 11.7015 12.9705 14.0513 12.9705C16.4012 12.9705 18.2819 14.4405 19.2266 16.3255C19.4782 16.8374 19.5172 17.4281 19.3352 17.9687C19.1532 18.5093 18.7649 18.9561 18.2549 19.2116C17.745 19.4672 17.1546 19.5108 16.6126 19.333C16.0706 19.1552 15.6209 18.7704 15.3614 18.2624C15.0112 17.562 14.475 17.294 14.0513 17.294ZM29.1836 17.294C28.762 17.294 28.2237 17.562 27.8735 18.2624C27.7477 18.5185 27.5724 18.7471 27.3578 18.935C27.1432 19.123 26.8935 19.2667 26.6231 19.3577C26.3528 19.4487 26.067 19.4853 25.7824 19.4654C25.4978 19.4455 25.22 19.3694 24.9649 19.2416C24.7099 19.1138 24.4826 18.9367 24.2963 18.7207C24.11 18.5046 23.9683 18.2538 23.8794 17.9827C23.7905 17.7117 23.7561 17.4257 23.7782 17.1412C23.8003 16.8568 23.8786 16.5796 24.0083 16.3255C24.953 14.4405 26.8337 12.9705 29.1836 12.9705C31.5334 12.9705 33.4141 14.4405 34.3588 16.3255C34.6104 16.8374 34.6494 17.4281 34.4674 17.9687C34.2854 18.5093 33.8971 18.9561 33.3872 19.2116C32.8772 19.4672 32.2869 19.5108 31.7449 19.333C31.2028 19.1552 30.7531 18.7704 30.4936 18.2624C30.1434 17.562 29.6073 17.294 29.1836 17.294ZM14.2762 26.6716C14.464 26.4586 14.692 26.2847 14.9471 26.1599C15.2023 26.035 15.4795 25.9617 15.7629 25.944C16.0464 25.9263 16.3306 25.9647 16.5992 26.0569C16.8678 26.1491 17.1157 26.2933 17.3285 26.4814C18.4743 27.4931 19.9724 28.1027 21.6174 28.1027C23.2625 28.1027 24.7628 27.4931 25.9064 26.4814C26.3363 26.1018 26.8995 25.9086 27.4719 25.9443C28.0444 25.98 28.5792 26.2416 28.9587 26.6716C29.3383 27.1016 29.5315 27.6648 29.4958 28.2372C29.4601 28.8096 29.1985 29.3444 28.7685 29.724C26.7957 31.4692 24.2514 32.4306 21.6174 32.4262C18.9835 32.4306 16.4392 31.4692 14.4664 29.724C14.2534 29.5361 14.0795 29.3081 13.9546 29.053C13.8298 28.7979 13.7564 28.5207 13.7388 28.2372C13.7211 27.9537 13.7595 27.6696 13.8517 27.4009C13.9439 27.1323 14.0881 26.8845 14.2762 26.6716Z" fill="white"/>
</svg>
