<svg width="48" height="39" viewBox="0 0 48 39" fill="none" xmlns="http://www.w3.org/2000/svg">
<path d="M8.64722 14.0515C8.64722 14.0515 3.08829 16.2133 2.16199 23.7794M38.9116 14.0515C38.9116 14.0515 44.4706 16.2133 45.3969 23.7794M17.2942 14.0515C17.2942 14.0515 22.4824 15.3129 23.7794 21.6176C25.0765 15.3129 30.2647 14.0515 30.2647 14.0515M19.4559 30.2646C19.4559 30.2646 14.9163 31.0753 12.9707 36.7498M28.1029 30.2646C28.1029 30.2646 32.6426 31.0753 34.5882 36.7498" stroke="white" stroke-width="4.32349" stroke-linecap="round"/>
<path d="M23.7795 32.4264C26.7642 32.4264 29.1838 30.0068 29.1838 27.022C29.1838 24.0373 26.7642 21.6177 23.7795 21.6177C20.7947 21.6177 18.3751 24.0373 18.3751 27.022C18.3751 30.0068 20.7947 32.4264 23.7795 32.4264Z" stroke="white" stroke-width="4.32349" stroke-linecap="round" stroke-linejoin="round"/>
<path d="M34.5881 15.1323C38.1698 15.1323 41.0734 12.2288 41.0734 8.6471C41.0734 5.0654 38.1698 2.16187 34.5881 2.16187C31.0064 2.16187 28.1029 5.0654 28.1029 8.6471C28.1029 12.2288 31.0064 15.1323 34.5881 15.1323Z" stroke="white" stroke-width="4.32349" stroke-linecap="round" stroke-linejoin="round"/>
<path d="M12.9707 15.1323C16.5524 15.1323 19.4559 12.2288 19.4559 8.6471C19.4559 5.0654 16.5524 2.16187 12.9707 2.16187C9.38901 2.16187 6.48547 5.0654 6.48547 8.6471C6.48547 12.2288 9.38901 15.1323 12.9707 15.1323Z" stroke="white" stroke-width="4.32349" stroke-linecap="round" stroke-linejoin="round"/>
</svg>
