<svg width="31" height="48" viewBox="0 0 31 48" fill="none" xmlns="http://www.w3.org/2000/svg">
<path d="M6.48523 8.64698C6.48523 6.35366 7.39625 4.15426 9.01788 2.53264C10.6395 0.911019 12.8389 0 15.1322 0C17.4255 0 19.6249 0.911019 21.2466 2.53264C22.8682 4.15426 23.7792 6.35366 23.7792 8.64698V20.0069C26.423 21.8478 28.4102 24.4844 29.4518 27.533C30.4933 30.5815 30.5347 33.8829 29.57 36.9567C28.6053 40.0304 26.6848 42.716 24.088 44.6227C21.4913 46.5293 18.3538 47.5574 15.1322 47.5574C11.9107 47.5574 8.77316 46.5293 6.1764 44.6227C3.57964 42.716 1.65913 40.0304 0.694417 36.9567C-0.2703 33.8829 -0.22888 30.5815 0.812649 27.533C1.85418 24.4844 3.84145 21.8478 6.48523 20.0069V8.64698ZM8.95827 23.5522C7.06928 24.8668 5.64917 26.7499 4.90468 28.9275C4.1602 31.1052 4.1302 33.4636 4.81905 35.6594C5.50791 37.8553 6.87965 39.774 8.7346 41.1361C10.5895 42.4983 12.8308 43.2329 15.1322 43.2329C17.4336 43.2329 19.6749 42.4983 21.5298 41.1361C23.3848 39.774 24.7565 37.8553 25.4454 35.6594C26.1342 33.4636 26.1042 31.1052 25.3597 28.9275C24.6153 26.7499 23.1951 24.8668 21.3062 23.5522L19.4557 22.2616V8.64698C19.4557 7.50032 19.0002 6.40062 18.1894 5.58981C17.3786 4.779 16.2789 4.32349 15.1322 4.32349C13.9856 4.32349 12.8859 4.779 12.075 5.58981C11.2642 6.40062 10.8087 7.50032 10.8087 8.64698V22.2616L8.95827 23.5522ZM12.9705 24.0516V8.64698H17.294V24.0516C19.3271 24.5828 21.0973 25.8358 22.2742 27.5767C23.4511 29.3175 23.9541 31.4272 23.6893 33.5118C23.4246 35.5965 22.4102 37.5134 20.8355 38.9049C19.2608 40.2963 17.2336 41.067 15.1322 41.0732C13.0261 41.0752 10.9916 40.3086 9.41067 38.9171C7.8297 37.5256 6.81094 35.6049 6.54559 33.5156C6.28024 31.4263 6.78656 29.3119 7.96951 27.5694C9.15246 25.8269 10.9307 24.576 12.9705 24.0516ZM15.1322 36.7497C16.2789 36.7497 17.3786 36.2942 18.1894 35.4833C19.0002 34.6725 19.4557 33.5728 19.4557 32.4262C19.4557 31.2795 19.0002 30.1798 18.1894 29.369C17.3786 28.5582 16.2789 28.1027 15.1322 28.1027C13.9856 28.1027 12.8859 28.5582 12.075 29.369C11.2642 30.1798 10.8087 31.2795 10.8087 32.4262C10.8087 33.5728 11.2642 34.6725 12.075 35.4833C12.8859 36.2942 13.9856 36.7497 15.1322 36.7497Z" fill="white"/>
</svg>
