<svg width="60" height="60" viewBox="0 0 60 60" fill="none" xmlns="http://www.w3.org/2000/svg">
<path d="M29.4 39.3977L33.4338 40.8827H48.16C52.0325 40.8827 53 43.9927 52.9713 45.3764L36.6038 51.4877C35.6388 51.8477 34.5063 51.7664 33.5138 51.4877L20.1088 47.7252V27.6752H24.2963L40.4838 33.7764C43.2838 34.8314 42.2838 38.5914 39.8125 38.8514M11.3 27.7714C13.75 27.7714 15.725 29.7777 15.725 32.2714V47.4464C15.725 49.9389 13.75 51.9464 11.3 51.9464C8.84875 51.9464 6.875 49.9389 6.875 47.4464V32.2714C6.875 29.7777 8.84875 27.7714 11.3 27.7714ZM43.04 29.1964L50.1138 22.0939C52.7988 19.3964 53.1788 17.5327 53.12 14.6364C53.0513 11.2439 49.8475 8.22392 45.9163 8.05892C44.1338 7.98392 41.9825 8.80267 39.9138 10.5377C37.845 8.80267 35.6938 7.98392 33.9113 8.05892C29.98 8.22392 26.7763 11.2439 26.7075 14.6364C26.6488 17.5327 27.0288 19.3964 29.7138 22.0939L36.7888 29.1964C37.5238 29.9339 38.4025 30.5127 39.9138 30.5127C41.425 30.5127 42.305 29.9352 43.04 29.1964Z" stroke="white" stroke-width="2.5" stroke-linecap="round" stroke-linejoin="round"/>
</svg>
