<svg width="29" height="29" viewBox="0 0 29 29" fill="none" xmlns="http://www.w3.org/2000/svg">
<path d="M4.7998 8.39991H23.9998M11.9998 13.1999V20.3999M16.7998 13.1999V20.3999M5.9998 8.39991L7.1998 22.7999C7.1998 23.4364 7.45266 24.0469 7.90275 24.497C8.35284 24.9471 8.96329 25.1999 9.5998 25.1999H19.1998C19.8363 25.1999 20.4468 24.9471 20.8969 24.497C21.3469 24.0469 21.5998 23.4364 21.5998 22.7999L22.7998 8.39991M10.7998 8.39991V4.79991C10.7998 4.48165 10.9262 4.17643 11.1513 3.95139C11.3763 3.72634 11.6815 3.59991 11.9998 3.59991H16.7998C17.1181 3.59991 17.4233 3.72634 17.6483 3.95139C17.8734 4.17643 17.9998 4.48165 17.9998 4.79991V8.39991" stroke="#586C9D" stroke-width="2.4" stroke-linecap="round" stroke-linejoin="round"/>
</svg>
