<svg width="23" height="40" viewBox="0 0 23 40" fill="none" xmlns="http://www.w3.org/2000/svg">
<path d="M2.0178 38.7656C1.62198 38.6007 1.26274 38.359 0.960777 38.0546C0.656334 37.7526 0.414694 37.3934 0.249788 36.9976C0.0848846 36.6017 -1.71661e-05 36.1772 -1.71661e-05 35.7484C-1.71661e-05 35.3196 0.0848846 34.8951 0.249788 34.4992C0.414694 34.1034 0.656334 33.7442 0.960777 33.4422L14.9278 19.5077L0.960777 5.57314C0.656334 5.27119 0.414694 4.91194 0.249788 4.51612C0.0848846 4.12031 -1.71661e-05 3.69576 -1.71661e-05 3.26696C-1.71661e-05 2.83817 0.0848846 2.41362 0.249788 2.0178C0.414694 1.62199 0.656334 1.26274 0.960777 0.960785C1.26274 0.656342 1.62198 0.414692 2.0178 0.24979C2.41362 0.0848846 2.83817 -1.52588e-05 3.26696 -1.52588e-05C3.69576 -1.52588e-05 4.12031 0.0848846 4.51612 0.24979C4.91194 0.414692 5.27118 0.656342 5.57314 0.960785L21.8139 17.2015C22.1183 17.5035 22.3599 17.8627 22.5249 18.2585C22.6898 18.6543 22.7747 19.0789 22.7747 19.5077C22.7747 19.9365 22.6898 20.361 22.5249 20.7568C22.3599 21.1527 22.1183 21.5119 21.8139 21.8139L5.57314 38.0546C5.27118 38.359 4.91194 38.6007 4.51612 38.7656C4.12031 38.9305 3.69576 39.0154 3.26696 39.0154C2.83817 39.0154 2.41362 38.9305 2.0178 38.7656Z" fill="#353D51"/>
</svg>
