<svg width="43" height="43" viewBox="0 0 43 43" fill="none" xmlns="http://www.w3.org/2000/svg">
<path d="M21.077 0C9.45547 0 0 9.45547 0 21.077C0 32.6986 9.45547 42.154 21.077 42.154C32.6986 42.154 42.154 32.6986 42.154 21.077C42.154 9.45547 32.6986 0 21.077 0ZM21.077 3.24262C30.9102 3.24262 38.9114 11.2438 38.9114 21.077C38.9114 30.9102 30.9102 38.9114 21.077 38.9114C11.2438 38.9114 3.24262 30.9102 3.24262 21.077C3.24262 11.2438 11.2438 3.24262 21.077 3.24262ZM11.4383 13.2428L9.63868 15.9407L12.4792 17.8344L9.63868 19.7281L11.4383 22.4259L18.3257 17.8344L11.4383 13.2428ZM30.7157 13.2428L23.8284 17.8344L30.7157 22.4259L32.5153 19.7281L29.6748 17.8344L32.5153 15.9407L30.7157 13.2428ZM21.077 25.9409C16.8551 25.9409 14.0503 29.4413 13.0564 31.3626C12.9891 31.4903 12.9615 31.6353 12.9771 31.7788C12.9928 31.9223 13.0509 32.0579 13.1441 32.1682C13.2373 32.2785 13.3613 32.3584 13.5002 32.3977C13.6391 32.437 13.7866 32.4339 13.9238 32.3889C15.5727 31.8474 18.4002 30.8049 21.077 30.8049C23.7538 30.8049 26.5814 31.849 28.2302 32.3889C28.3674 32.4339 28.5149 32.437 28.6538 32.3977C28.7927 32.3584 28.9167 32.2785 29.0099 32.1682C29.1031 32.0579 29.1613 31.9223 29.1769 31.7788C29.1925 31.6353 29.1649 31.4903 29.0976 31.3626C28.1038 29.443 25.2989 25.9409 21.077 25.9409Z" fill="white"/>
</svg>
