<svg width="20" height="20" viewBox="0 0 20 20" fill="none" xmlns="http://www.w3.org/2000/svg">
<path d="M16.5736 10.448C16.7983 10.223 16.9245 9.91795 16.9245 9.59995C16.9245 9.28195 16.7983 8.97695 16.5736 8.75195L12.0488 4.22475C11.8237 3.99964 11.5184 3.87317 11.2 3.87317C10.8816 3.87317 10.5763 3.99964 10.3512 4.22475C10.1261 4.44987 9.99962 4.75519 9.99962 5.07355C9.99962 5.39192 10.1261 5.69724 10.3512 5.92235L12.828 8.39995H3.60001C3.28175 8.39995 2.97652 8.52638 2.75148 8.75143C2.52643 8.97647 2.40001 9.28169 2.40001 9.59995C2.40001 9.91821 2.52643 10.2234 2.75148 10.4485C2.97652 10.6735 3.28175 10.8 3.60001 10.8H12.828L10.3512 13.2768C10.2397 13.3882 10.1513 13.5205 10.091 13.6662C10.0307 13.8118 9.99962 13.9679 9.99962 14.1256C9.99962 14.2832 10.0307 14.4393 10.091 14.5849C10.1513 14.7306 10.2397 14.8629 10.3512 14.9744C10.4627 15.0858 10.595 15.1742 10.7406 15.2346C10.8863 15.2949 11.0424 15.3259 11.2 15.3259C11.3576 15.3259 11.5137 15.2949 11.6594 15.2346C11.805 15.1742 11.9373 15.0858 12.0488 14.9744L16.5736 10.448Z" fill="url(#paint0_linear_0_92)"/>
<defs>
<linearGradient id="paint0_linear_0_92" x1="23.8687" y1="2.04188" x2="14.8885" y2="25.0599" gradientUnits="userSpaceOnUse">
<stop stop-color="#E21E1E"/>
<stop offset="1" stop-color="#F6924F"/>
</linearGradient>
</defs>
</svg>
