<svg width="20" height="20" viewBox="0 0 20 20" fill="none" xmlns="http://www.w3.org/2000/svg">
<path d="M16.5735 10.448C16.7983 10.223 16.9245 9.91802 16.9245 9.60001C16.9245 9.28201 16.7983 8.97701 16.5735 8.75201L12.0487 4.22481C11.8236 3.9997 11.5183 3.87323 11.1999 3.87323C10.8816 3.87323 10.5763 3.9997 10.3511 4.22481C10.126 4.44993 9.99956 4.75525 9.99956 5.07361C9.99956 5.39198 10.126 5.6973 10.3511 5.92241L12.8279 8.40001H3.59994C3.28168 8.40001 2.97646 8.52644 2.75142 8.75149C2.52637 8.97653 2.39994 9.28175 2.39994 9.60001C2.39994 9.91827 2.52637 10.2235 2.75142 10.4485C2.97646 10.6736 3.28168 10.8 3.59994 10.8H12.8279L10.3511 13.2768C10.2397 13.3883 10.1513 13.5206 10.0909 13.6662C10.0306 13.8119 9.99956 13.968 9.99956 14.1256C9.99956 14.2833 10.0306 14.4393 10.0909 14.585C10.1513 14.7306 10.2397 14.8629 10.3511 14.9744C10.4626 15.0859 10.5949 15.1743 10.7406 15.2346C10.8862 15.2949 11.0423 15.326 11.1999 15.326C11.3576 15.326 11.5137 15.2949 11.6593 15.2346C11.8049 15.1743 11.9373 15.0859 12.0487 14.9744L16.5735 10.448Z" fill="url(#paint0_linear_37_1601)"/>
<defs>
<linearGradient id="paint0_linear_37_1601" x1="23.8686" y1="2.04194" x2="14.8884" y2="25.0599" gradientUnits="userSpaceOnUse">
<stop stop-color="#E21E1E"/>
<stop offset="1" stop-color="#F6924F"/>
</linearGradient>
</defs>
</svg>
