<svg width="44" height="48" viewBox="0 0 44 48" fill="none" xmlns="http://www.w3.org/2000/svg">
<path d="M10.8088 23.7793H38.9115C39.4848 23.7793 40.0346 24.0071 40.4401 24.4125C40.8455 24.8179 41.0732 25.3677 41.0732 25.941C41.0732 28.8077 39.9344 31.5569 37.9074 33.584C35.8804 35.611 33.1311 36.7498 30.2645 36.7498H28.9718C28.7788 36.7498 28.5894 36.8014 28.4232 36.8993C28.2569 36.9973 28.1199 37.1379 28.0264 37.3067C27.9329 37.4754 27.8862 37.6661 27.8913 37.859C27.8963 38.0519 27.9529 38.2399 28.0552 38.4035L31.3929 43.743C31.4952 43.9066 31.5518 44.0946 31.5568 44.2875C31.5619 44.4804 31.5152 44.6711 31.4217 44.8398C31.3282 45.0086 31.1912 45.1492 31.0249 45.2472C30.8587 45.3451 30.6693 45.3967 30.4763 45.3967H7.35431C7.16137 45.3967 6.97195 45.3451 6.8057 45.2472C6.63946 45.1492 6.50247 45.0086 6.40893 44.8398C6.3154 44.6711 6.26875 44.4804 6.27381 44.2875C6.27887 44.0946 6.33547 43.9066 6.43773 43.743L10.8088 36.7498" stroke="white" stroke-width="4.32349" stroke-linecap="round" stroke-linejoin="round"/>
<path d="M12.9705 36.7498C10.1038 36.7498 7.35457 35.611 5.32755 33.584C3.30052 31.557 2.16174 28.8077 2.16174 25.9411V6.48535C2.16174 5.33869 2.61725 4.239 3.42806 3.42819C4.23888 2.61737 5.33857 2.16187 6.48523 2.16187H23.7792C24.9259 2.16187 26.0255 2.61737 26.8364 3.42819C27.6472 4.239 28.1027 5.33869 28.1027 6.48535V23.7793" stroke="white" stroke-width="4.32349" stroke-linecap="round" stroke-linejoin="round"/>
</svg>
