<svg width="20" height="20" viewBox="0 0 20 20" fill="none" xmlns="http://www.w3.org/2000/svg">
<path d="M10.5107 2.68835C10.2857 2.46363 9.98075 2.3374 9.66275 2.3374C9.34475 2.3374 9.03975 2.46363 8.81475 2.68835L4.28755 7.21315C4.06243 7.43826 3.93596 7.74358 3.93596 8.06195C3.93596 8.38031 4.06243 8.68563 4.28755 8.91075C4.51266 9.13586 4.81799 9.26233 5.13635 9.26233C5.45471 9.26233 5.76003 9.13586 5.98515 8.91075L8.46275 6.43395V15.6619C8.46275 15.9802 8.58918 16.2854 8.81422 16.5105C9.03926 16.7355 9.34449 16.8619 9.66275 16.8619C9.98101 16.8619 10.2862 16.7355 10.5113 16.5105C10.7363 16.2854 10.8627 15.9802 10.8627 15.6619V6.43395L13.3395 8.91075C13.451 9.02221 13.5833 9.11063 13.729 9.17096C13.8746 9.23128 14.0307 9.26233 14.1883 9.26233C14.346 9.26233 14.5021 9.23128 14.6477 9.17096C14.7934 9.11063 14.9257 9.02221 15.0371 8.91075C15.1486 8.79928 15.237 8.66695 15.2974 8.52131C15.3577 8.37568 15.3887 8.21958 15.3887 8.06195C15.3887 7.90431 15.3577 7.74822 15.2974 7.60258C15.237 7.45694 15.1486 7.32461 15.0371 7.21315L10.5107 2.68835Z" fill="url(#paint0_linear_32_388)"/>
<defs>
<linearGradient id="paint0_linear_32_388" x1="2.10467" y1="-4.60674" x2="25.1227" y2="4.3735" gradientUnits="userSpaceOnUse">
<stop stop-color="#E21E1E"/>
<stop offset="1" stop-color="#F6924F"/>
</linearGradient>
</defs>
</svg>
