<svg width="20" height="20" viewBox="0 0 20 20" fill="none" xmlns="http://www.w3.org/2000/svg">
<path d="M7.01473 9.81682H9.90433C10.5091 9.81682 10.9627 9.68242 11.2651 9.41362C11.5675 9.14482 11.7187 8.70802 11.7187 8.10322C11.7187 7.52082 11.5675 7.10082 11.2651 6.84322C10.9627 6.57442 10.5091 6.44002 9.90433 6.44002H7.01473V9.81682ZM4.37713 4.39042L10.8451 4.39042C11.3827 4.39042 11.8643 4.48002 12.2899 4.65922C12.7267 4.82722 13.0963 5.06242 13.3987 5.36482C13.7123 5.66722 13.9475 6.02002 14.1043 6.42322C14.2723 6.81522 14.3563 7.24082 14.3563 7.70002C14.3563 8.40562 14.2051 9.01602 13.9027 9.53122C13.6115 10.0464 13.1299 10.4384 12.4579 10.7072V10.7408C12.7827 10.8304 13.0515 10.9704 13.2643 11.1608C13.4771 11.34 13.6507 11.5584 13.7851 11.816C13.9195 12.0624 14.0147 12.3368 14.0707 12.6392C14.1379 12.9416 14.1827 13.244 14.2051 13.5464C14.2163 13.7368 14.2275 13.9608 14.2387 14.2184C14.2499 14.476 14.2667 14.7392 14.2891 15.008C14.3227 15.2768 14.3675 15.5344 14.4235 15.7808C14.4907 16.016 14.5859 16.2176 14.7091 16.3856H12.0715C11.9259 16.0048 11.8363 15.5512 11.8027 15.0248C11.7691 14.4984 11.7187 13.9944 11.6515 13.5128C11.5619 12.8856 11.3715 12.4264 11.0803 12.1352C10.7891 11.844 10.3131 11.6984 9.65233 11.6984H7.01473L7.01473 16.3856H4.37713L4.37713 4.39042Z" fill="url(#paint0_linear_32_394)"/>
<defs>
<linearGradient id="paint0_linear_32_394" x1="-14.7931" y1="-10.3813" x2="32.6494" y2="31.5359" gradientUnits="userSpaceOnUse">
<stop stop-color="#E21E1E"/>
<stop offset="1" stop-color="#F6924F"/>
</linearGradient>
</defs>
</svg>
