<svg width="52" height="52" viewBox="0 0 52 52" fill="none" xmlns="http://www.w3.org/2000/svg">
<path d="M14.5918 11.3491C9.24149 11.3491 4.86396 15.7267 4.86396 21.077C4.86396 24.2936 6.44797 27.1569 8.86697 28.9306C4.59158 31.0513 1.62134 35.4483 1.62134 40.5327H4.86396C4.86396 35.1434 9.20258 30.8048 14.5918 30.8048C19.981 30.8048 24.3197 35.1434 24.3197 40.5327H27.5623C27.5623 35.1434 31.9009 30.8048 37.2901 30.8048C42.6794 30.8048 47.018 35.1434 47.018 40.5327H50.2606C50.2606 35.4466 47.2904 31.0513 43.015 28.9306C44.2534 28.0291 45.2615 26.848 45.9571 25.4832C46.6527 24.1185 47.0162 22.6088 47.018 21.077C47.018 15.7267 42.6404 11.3491 37.2901 11.3491C31.9398 11.3491 27.5623 15.7267 27.5623 21.077C27.5623 24.2936 29.1463 27.1569 31.5653 28.9306C29.1963 30.095 27.2354 31.9496 25.941 34.2501C24.6465 31.9496 22.6857 30.095 20.3166 28.9306C21.5551 28.0291 22.5632 26.848 23.2588 25.4832C23.9544 24.1185 24.3179 22.6088 24.3197 21.077C24.3197 15.7267 19.9421 11.3491 14.5918 11.3491ZM14.5918 14.5917C18.196 14.5917 21.077 17.4728 21.077 21.077C21.077 24.6811 18.196 27.5622 14.5918 27.5622C10.9876 27.5622 8.10657 24.6811 8.10657 21.077C8.10657 17.4728 10.9876 14.5917 14.5918 14.5917ZM37.2901 14.5917C40.8943 14.5917 43.7754 17.4728 43.7754 21.077C43.7754 24.6811 40.8943 27.5622 37.2901 27.5622C33.686 27.5622 30.8049 24.6811 30.8049 21.077C30.8049 17.4728 33.686 14.5917 37.2901 14.5917Z" fill="white"/>
</svg>
