<svg width="27" height="42" viewBox="0 0 27 42" fill="none" xmlns="http://www.w3.org/2000/svg">
<path d="M9.04114 34.4586H16.6607V41.5664H9.04114V34.4586ZM6.97108e-06 13.8744C6.97108e-06 11.7894 0.303274 9.894 0.909807 8.18813C1.55425 6.48225 2.46405 5.02278 3.63921 3.80971C4.85227 2.59665 6.29279 1.66789 7.96076 1.02345C9.66663 0.341104 11.562 -6.98906e-05 13.647 -6.98906e-05C15.3908 -6.98906e-05 17.0019 0.265288 18.4803 0.796005C19.9966 1.28881 21.3045 2.02802 22.4038 3.01364C23.5411 3.96135 24.4319 5.15546 25.0764 6.59598C25.7208 8.03649 26.043 9.66655 26.043 11.4861C26.043 12.8129 25.8914 13.9691 25.5881 14.9548C25.3228 15.9025 24.9437 16.7365 24.4509 17.4567C23.996 18.1391 23.4653 18.7645 22.8587 19.3332C22.2522 19.8639 21.6457 20.3946 21.0391 20.9253C20.3189 21.5319 19.6555 22.1194 19.0489 22.6881C18.4424 23.2567 17.9117 23.9011 17.4568 24.6214C17.0019 25.3037 16.6418 26.1188 16.3764 27.0665C16.149 28.0142 16.0352 29.1704 16.0352 30.5351H9.89408C9.89408 28.8671 9.9699 27.4645 10.1215 26.3273C10.3111 25.1521 10.5954 24.1286 10.9745 23.2567C11.3535 22.3848 11.8084 21.6266 12.3392 20.9822C12.9078 20.2998 13.5712 19.6364 14.3294 18.992C14.9359 18.4613 15.5045 17.9685 16.0352 17.5136C16.6039 17.0587 17.0967 16.5659 17.5137 16.0351C17.9686 15.4665 18.3097 14.841 18.5372 14.1587C18.8025 13.4763 18.9352 12.6613 18.9352 11.7136C18.9352 10.5764 18.7267 9.60969 18.3097 8.81361C17.9306 7.97963 17.4568 7.31623 16.8882 6.82343C16.3195 6.33062 15.713 5.97049 15.0686 5.74304C14.4241 5.51559 13.8555 5.40186 13.3627 5.40186C11.0124 5.40186 9.26859 6.17899 8.13134 7.73323C7.032 9.24956 6.48233 11.2966 6.48233 13.8744H6.97108e-06Z" fill="white"/>
</svg>
