<svg width="44" height="44" viewBox="0 0 44 44" fill="none" xmlns="http://www.w3.org/2000/svg">
<path fill-rule="evenodd" clip-rule="evenodd" d="M26.3269 35.2324C25.8469 35.5869 25.326 35.8809 24.7531 36.0322C23.1404 36.4646 21.3786 35.8204 19.8395 35.388C9.52145 32.4848 2.61035 27.9387 0.628028 21.1551C-0.954369 15.7378 0.5675 10.3118 3.91388 6.93948C7.01382 3.81576 11.6097 2.54898 16.3245 4.57886C19.3941 0.462895 24.0095 -0.739035 28.2551 0.417499C32.838 1.66483 36.8675 5.60352 38.2056 11.0857C38.4679 12.1608 38.5998 13.2554 38.6012 14.3694C39.1546 14.6533 39.6735 14.9992 40.1577 15.407C42.6588 17.5234 43.9948 21.1184 43.249 24.856C42.2978 29.6248 37.8771 32.9734 31.5539 35.3643C30.4709 35.775 29.2863 36.283 28.1038 36.0755C27.4466 35.9587 26.8586 35.6215 26.3269 35.2324ZM4.77858 19.9424C3.62205 15.9799 4.78506 12.2012 6.98356 9.98538C9.09342 7.85822 12.2215 7.06703 15.6803 9.09042C16.8887 9.79731 18.4473 9.37793 19.139 8.16519C21.1235 4.68262 24.2278 3.80279 27.118 4.58967C30.1315 5.41113 33.0283 8.10034 34.0054 12.1104C34.125 12.5917 34.2043 13.0853 34.2432 13.5912C33.4511 13.6925 32.6788 13.9118 31.9517 14.2419C29.63 11.9785 26.556 11.5332 23.8452 12.5319C20.7712 13.6625 18.2852 16.5852 17.7058 20.3531C17.1157 24.2118 18.938 27.9733 22.3298 31.5899C21.9018 31.4818 21.4586 31.3521 21.0111 31.2267C11.0001 28.4099 6.09508 24.4496 4.77858 19.9424ZM21.9817 21.0081C22.3276 18.7383 23.7954 17.1581 25.3389 16.5874C26.7657 16.0642 28.3502 16.3387 29.5543 18.079C29.7339 18.3382 29.963 18.5594 30.2285 18.7296C30.494 18.8998 30.7906 19.0157 31.1012 19.0706C31.4118 19.1254 31.7301 19.1182 32.0379 19.0493C32.3457 18.9804 32.6367 18.8512 32.8942 18.6691C34.6236 17.4434 36.206 17.7288 37.3647 18.708C38.6229 19.7716 39.4573 21.7604 39.0076 24.0108C38.5213 26.4536 36.0504 29.0433 30.0256 31.3196C29.643 31.4645 29.2625 31.6201 28.8691 31.7347C28.5383 31.4904 28.2335 31.2159 27.9222 30.95C23.041 26.7497 21.6034 23.4703 21.9817 21.006V21.0081Z" fill="white"/>
</svg>
