<svg width="52" height="52" viewBox="0 0 52 52" fill="none" xmlns="http://www.w3.org/2000/svg">
<path d="M16.4659 6.48535L16.213 7.80348L14.5917 16.9233V22.6984H14.7441C14.9685 24.2656 15.5168 25.7689 16.3542 27.1124C17.1917 28.4559 18.2998 29.6102 19.608 30.5018C13.8248 32.9824 9.72778 38.7218 9.72778 45.3968H12.9704C12.968 43.4509 13.404 41.5294 14.2461 39.7752C15.0881 38.0209 16.3146 36.4789 17.8343 35.2636V36.3272L18.2899 36.8346L24.7751 43.3199L25.9409 44.4337L27.1066 43.3199L33.5918 36.8346L34.0474 36.3272V35.2636C35.5672 36.4789 36.7936 38.0209 37.6357 39.7752C38.4777 41.5294 38.9137 43.4509 38.9113 45.3968H42.154C42.154 38.7218 38.0569 32.984 32.2737 30.5002C33.5817 29.6088 34.6898 28.4547 35.5272 27.1115C36.3646 25.7682 36.9131 24.2653 37.1376 22.6984H37.29V16.9217L35.6687 7.80348L35.4158 6.48535H16.4659ZM19.2027 9.72797H32.679L34.0474 17.4794V19.4558H17.8343V17.4794L19.2027 9.72797ZM24.3196 11.3493V12.9706H22.6983V16.2132H24.3196V17.8345H27.5622V16.2132H29.1835V12.9706H27.5622V11.3493H24.3196ZM17.9867 22.6984H33.895C33.5209 24.5311 32.5246 26.1781 31.0749 27.36C29.6252 28.542 27.8113 29.1863 25.9409 29.1837C24.0704 29.1863 22.2566 28.542 20.8069 27.36C19.3572 26.1781 18.3608 24.5311 17.9867 22.6984ZM25.9409 32.4263C27.6057 32.4156 29.2571 32.7255 30.8048 33.3391V34.9604L25.9409 39.8243L21.0769 34.9604V33.3391C22.6246 32.7255 24.276 32.4156 25.9409 32.4263Z" fill="white"/>
</svg>
