<svg width="52" height="52" viewBox="0 0 52 52" fill="none" xmlns="http://www.w3.org/2000/svg">
<path fill-rule="evenodd" clip-rule="evenodd" d="M36.7497 17.2941C36.7497 23.2637 31.9106 28.1028 25.9409 28.1028C19.9713 28.1028 15.1322 23.2637 15.1322 17.2941C15.1322 11.3244 19.9713 6.48535 25.9409 6.48535C31.9106 6.48535 36.7497 11.3244 36.7497 17.2941ZM34.5879 17.2941C34.5879 19.5874 33.6769 21.7868 32.0553 23.4084C30.4336 25.03 28.2343 25.9411 25.9409 25.9411C23.6476 25.9411 21.4482 25.03 19.8266 23.4084C18.205 21.7868 17.294 19.5874 17.294 17.2941C17.294 15.0008 18.205 12.8014 19.8266 11.1797C21.4482 9.55811 23.6476 8.6471 25.9409 8.6471C28.2343 8.6471 30.4336 9.55811 32.0553 11.1797C33.6769 12.8014 34.5879 15.0008 34.5879 17.2941ZM19.3627 31.1887L19.3746 31.2125L19.4557 31.3714H32.1549C32.4024 30.9023 32.9634 30.1543 33.507 30.2786C34.7284 30.5564 35.9585 30.9433 37.1399 31.42L37.1755 31.4027L37.1874 31.4265L37.1961 31.4427C41.6438 33.2499 45.3966 36.3131 45.3966 39.5276V45.3968H6.48523V39.5276C6.48523 35.4473 12.5338 31.6081 18.3748 30.2786C18.8515 30.1705 19.1347 30.7326 19.3627 31.1887ZM35.3488 33.0564C34.8852 32.8939 34.4162 32.7471 33.9426 32.6165L33.4606 33.5331H18.1511L17.7036 32.6825L17.3145 32.7992C17.3066 32.8698 17.3008 32.9505 17.2972 33.0413C17.2831 33.4142 17.3112 33.8563 17.3729 34.3059C17.4357 34.775 17.5369 35.2381 17.6755 35.6905C18.4348 35.7805 19.1378 36.1358 19.6605 36.6939C20.1832 37.2519 20.4919 37.9767 20.5321 38.7402C20.5723 39.5037 20.3414 40.2569 19.8802 40.8667C19.419 41.4765 18.7571 41.9037 18.0114 42.0729C17.2658 42.242 16.4844 42.1423 15.8051 41.7912C15.1259 41.4402 14.5926 40.8604 14.2993 40.1543C14.0061 39.4481 13.9718 38.6611 14.2025 37.9322C14.4332 37.2032 14.9141 36.5792 15.5602 36.1704L15.5516 36.1402C15.4073 35.6349 15.3 35.1197 15.2306 34.5988C15.1847 34.2661 15.1544 33.9314 15.1398 33.5958C13.8038 34.1665 12.5576 34.8561 11.5134 35.617C9.43601 37.1346 8.64697 38.5527 8.64697 39.5276V43.235H43.2349V39.5276C43.2349 38.5516 42.4459 37.1335 40.3684 35.6181C39.4625 34.967 38.4977 34.4017 37.4868 33.9298C37.4426 34.5156 37.353 35.097 37.2188 35.6689H37.8305C38.0312 35.669 38.2279 35.725 38.3986 35.8306C38.5692 35.9361 38.7071 36.0871 38.7968 36.2666L39.8777 38.4284C39.9534 38.5786 39.9923 38.744 39.9923 38.9115V41.0733C39.9923 41.3599 39.8784 41.6349 39.6757 41.8376C39.473 42.0403 39.1981 42.1541 38.9114 42.1541H36.7497V39.9924H37.8305V39.1666L37.1625 37.8307H34.175L33.507 39.1666V39.9924H34.5879V42.1541H32.4262C32.1395 42.1541 31.8646 42.0403 31.6619 41.8376C31.4592 41.6349 31.3453 41.3599 31.3453 41.0733V38.9115C31.3453 38.744 31.3842 38.5786 31.4599 38.4284L32.5407 36.2666C32.6304 36.0871 32.7683 35.9361 32.939 35.8306C33.1097 35.725 33.3064 35.669 33.507 35.6689H34.9792L35.0192 35.5349C35.1208 35.1879 35.2116 34.7566 35.2732 34.307C35.3337 33.8617 35.3618 33.4261 35.3488 33.0564ZM18.3748 38.9115C18.3748 39.5319 17.8755 40.0086 17.294 40.0086C16.7124 40.0086 16.2131 39.533 16.2131 38.9115C16.2131 38.2911 16.7124 37.8144 17.294 37.8144C17.8755 37.8144 18.3748 38.29 18.3748 38.9115Z" fill="white"/>
</svg>
