<svg width="20" height="20" viewBox="0 0 20 20" fill="none" xmlns="http://www.w3.org/2000/svg">
<path d="M2.7509 8.7512C2.52618 8.9762 2.39995 9.2812 2.39995 9.5992C2.39995 9.91721 2.52618 10.2222 2.7509 10.4472L7.2757 14.9744C7.50081 15.1995 7.80613 15.326 8.1245 15.326C8.44286 15.326 8.74818 15.1995 8.9733 14.9744C9.19841 14.7493 9.32488 14.444 9.32488 14.1256C9.32488 13.8072 9.19841 13.5019 8.9733 13.2768L6.4965 10.7992H15.7245C16.0428 10.7992 16.348 10.6728 16.573 10.4477C16.7981 10.2227 16.9245 9.91746 16.9245 9.5992C16.9245 9.28094 16.7981 8.97572 16.573 8.75068C16.348 8.52563 16.0428 8.3992 15.7245 8.3992H6.4965L8.9733 5.9224C9.08476 5.81094 9.17318 5.67861 9.23351 5.53297C9.29383 5.38733 9.32488 5.23124 9.32488 5.0736C9.32488 4.91597 9.29383 4.75987 9.23351 4.61424C9.17318 4.4686 9.08476 4.33627 8.9733 4.2248C8.86183 4.11334 8.7295 4.02492 8.58386 3.96459C8.43823 3.90427 8.28213 3.87322 8.1245 3.87322C7.96686 3.87322 7.81077 3.90427 7.66513 3.96459C7.51949 4.02492 7.38716 4.11334 7.2757 4.2248L2.7509 8.7512Z" fill="url(#paint0_linear_32_385)"/>
<defs>
<linearGradient id="paint0_linear_32_385" x1="-4.54419" y1="17.1573" x2="4.43605" y2="-5.86072" gradientUnits="userSpaceOnUse">
<stop stop-color="#E21E1E"/>
<stop offset="1" stop-color="#F6924F"/>
</linearGradient>
</defs>
</svg>
