<svg width="44" height="44" viewBox="0 0 44 44" fill="none" xmlns="http://www.w3.org/2000/svg">
<path d="M16.8076 34.5879C17.4201 34.5879 18.0059 34.4798 18.5651 34.2637C19.1242 34.0475 19.6733 33.7953 20.2123 33.507C20.4285 33.3629 20.654 33.2368 20.8889 33.1287C21.1239 33.0207 21.3667 32.9666 21.6175 32.9666C21.9057 32.9666 22.3741 33.1468 23.0226 33.507C23.563 33.7953 24.1128 34.0475 24.672 34.2637C25.2312 34.4798 25.8163 34.5879 26.4273 34.5879C28.2288 34.5879 29.6793 33.948 30.7789 32.6683C31.8785 31.3885 32.4276 29.6865 32.4262 27.5622C32.4262 24.9682 31.5348 22.9685 29.7521 21.5634C27.9694 20.1583 25.4019 19.4557 22.0498 19.4557H21.1851C17.8344 19.4557 15.2677 20.1583 13.485 21.5634C11.7022 22.9685 10.8102 24.9682 10.8087 27.5622C10.8087 29.688 11.3585 31.3907 12.4581 32.6705C13.5577 33.9502 15.0076 34.5894 16.8076 34.5879ZM16.7535 31.3453C15.8888 31.3453 15.2136 31.0124 14.728 30.3466C14.2423 29.6808 13.9987 28.7526 13.9973 27.5622C13.9973 25.9049 14.5831 24.6799 15.7548 23.8873C16.9265 23.0946 18.7366 22.6983 21.1851 22.6983H21.9958C24.4457 22.6983 26.2472 23.0946 27.4001 23.8873C28.553 24.6799 29.1295 25.9049 29.1295 27.5622C29.1295 28.7512 28.8953 29.6793 28.4269 30.3466C27.9586 31.0138 27.292 31.3467 26.4273 31.3453C25.995 31.3453 25.3825 31.1291 24.5898 30.6968C24.1215 30.4085 23.6444 30.1744 23.1588 29.9942C22.6731 29.8141 22.1593 29.724 21.6175 29.724C21.0756 29.724 20.5532 29.8141 20.0502 29.9942C19.5472 30.1744 19.0608 30.4085 18.591 30.6968C18.3028 30.8769 18.0059 31.0304 17.7004 31.1572C17.3948 31.2841 17.0792 31.3467 16.7535 31.3453ZM9.24146 18.8072C11.4032 17.9425 13.1326 16.9877 14.4297 15.9429C15.7267 14.898 16.9517 13.4749 18.1046 11.6734L15.4024 9.94403C14.4657 11.4212 13.4842 12.5561 12.4581 13.3488C11.432 14.1414 9.94547 14.9521 7.99846 15.7807L9.24146 18.8072ZM33.9394 18.8072L35.1824 15.7807C33.2729 14.9881 31.8137 14.1955 30.8049 13.4028C29.7961 12.6102 28.8053 11.4572 27.8325 9.94403L25.1303 11.6734C26.2832 13.4749 27.5082 14.8894 28.8053 15.9169C30.1023 16.9445 31.8137 17.9079 33.9394 18.8072ZM21.6175 43.2349C18.627 43.2349 15.8168 42.6671 13.1866 41.5314C10.5565 40.3958 8.26868 38.8559 6.32311 36.9118C4.37754 34.9677 2.83765 32.6798 1.70346 30.0483C0.569262 27.4167 0.0014439 24.6064 2.73638e-06 21.6174C-0.00143843 18.6285 0.56638 15.8182 1.70346 13.1866C2.84054 10.5551 4.38042 8.26723 6.32311 6.3231C8.26579 4.37897 10.5536 2.83909 13.1866 1.70346C15.8197 0.567819 18.6299 0 21.6175 0C24.605 0 27.4152 0.567819 30.0483 1.70346C32.6813 2.83909 34.9691 4.37897 36.9118 6.3231C38.8545 8.26723 40.3951 10.5551 41.5336 13.1866C42.6721 15.8182 43.2392 18.6285 43.2349 21.6174C43.2306 24.6064 42.6628 27.4167 41.5314 30.0483C40.4001 32.6798 38.8603 34.9677 36.9118 36.9118C34.9633 38.8559 32.6755 40.3965 30.0483 41.5336C27.421 42.6707 24.6107 43.2378 21.6175 43.2349ZM21.6175 38.9114C26.4453 38.9114 30.5346 37.2361 33.8854 33.8853C37.2361 30.5346 38.9114 26.4453 38.9114 21.6174C38.9114 16.7896 37.2361 12.7003 33.8854 9.34955C30.5346 5.99884 26.4453 4.32349 21.6175 4.32349C16.7896 4.32349 12.7003 5.99884 9.34955 9.34955C5.99884 12.7003 4.32349 16.7896 4.32349 21.6174C4.32349 26.4453 5.99884 30.5346 9.34955 33.8853C12.7003 37.2361 16.7896 38.9114 21.6175 38.9114Z" fill="white"/>
</svg>
