<svg width="45" height="45" viewBox="0 0 45 45" fill="none" xmlns="http://www.w3.org/2000/svg">
<path fill-rule="evenodd" clip-rule="evenodd" d="M22.5 42.75C33.6836 42.75 42.75 33.6836 42.75 22.5C42.75 11.3164 33.6836 2.25 22.5 2.25C11.3164 2.25 2.25 11.3164 2.25 22.5C2.25 33.6836 11.3164 42.75 22.5 42.75ZM22.5 45C34.9267 45 45 34.9267 45 22.5C45 10.0733 34.9267 0 22.5 0C10.0733 0 0 10.0733 0 22.5C0 34.9267 10.0733 45 22.5 45Z" fill="white"/>
<path fill-rule="evenodd" clip-rule="evenodd" d="M34.5037 13.7915C34.725 13.9914 34.8579 14.2711 34.8731 14.569C34.8883 14.8668 34.7846 15.1586 34.5847 15.38L19.5592 31.9861L10.4737 23.3135C10.2697 23.105 10.1547 22.8254 10.1529 22.5337C10.151 22.242 10.2626 21.961 10.464 21.75C10.6654 21.539 10.9409 21.4144 11.2323 21.4026C11.5238 21.3908 11.8084 21.4927 12.0262 21.6867L19.44 28.763L32.9164 13.8714C33.0155 13.7618 33.1353 13.6728 33.2689 13.6095C33.4025 13.5462 33.5472 13.5099 33.6949 13.5026C33.8425 13.4953 33.9901 13.5171 34.1293 13.5669C34.2685 13.6167 34.3965 13.6934 34.506 13.7926" fill="white"/>
</svg>
