<svg width="52" height="52" viewBox="0 0 52 52" fill="none" xmlns="http://www.w3.org/2000/svg">
<path d="M42.6945 5.03692C42.49 4.81027 42.2397 4.62951 41.9603 4.50655C41.6808 4.3836 41.3785 4.32122 41.0732 4.32355H10.8088C10.5035 4.32122 10.2012 4.3836 9.92171 4.50655C9.64226 4.62951 9.39202 4.81027 9.18747 5.03692C8.98347 5.26391 8.82985 5.53151 8.7367 5.82213C8.64355 6.11276 8.61299 6.41981 8.64704 6.72309L12.5382 41.7866C12.7145 43.3801 13.4749 44.8519 14.6725 45.9178C15.8701 46.9837 17.4202 47.5682 19.0234 47.5584H32.9018C34.5051 47.5682 36.0551 46.9837 37.2527 45.9178C38.4504 44.8519 39.2107 43.3801 39.387 41.7866L43.235 6.72309C43.269 6.41981 43.2384 6.11276 43.1453 5.82213C43.0521 5.53151 42.8985 5.26391 42.6945 5.03692ZM35.0203 41.311C34.9615 41.8422 34.7081 42.3328 34.3089 42.6881C33.9097 43.0434 33.393 43.2382 32.8586 43.235H19.0018C18.4674 43.2382 17.9507 43.0434 17.5515 42.6881C17.1523 42.3328 16.8988 41.8422 16.8401 41.311L14.6567 21.6175H37.2253L35.0203 41.311ZM37.7009 17.294H14.1811L13.2299 8.64704H38.6521L37.7009 17.294Z" fill="white"/>
</svg>
