<svg width="52" height="52" viewBox="0 0 52 52" fill="none" xmlns="http://www.w3.org/2000/svg">
<g clip-path="url(#clip0_408_6941)">
<path d="M6.20657 25.9409L11.4252 31.1342L9.11986 33.4395L0 24.3196L9.11986 15.1998L11.4252 17.5051L6.20657 22.6983H16.2131V25.9409H6.20657ZM48.6393 24.3196L39.6207 33.3128L37.3408 31.0329L42.4327 25.9409H32.4262V22.6983H42.4327L37.2141 17.5051L39.5194 15.1998L48.6393 24.3196ZM17.6064 11.2985L15.3264 9.01853L24.3196 0L33.4395 9.11986L31.1342 11.4252L25.9409 6.20657V16.2131H22.6983V6.20657L17.6064 11.2985ZM31.1342 37.2141L33.4395 39.5194L24.3196 48.6393L15.1998 39.5194L17.5051 37.2141L22.6983 42.4327V32.4262H25.9409V42.4327L31.1342 37.2141Z" fill="white"/>
</g>
<defs>
<clipPath id="clip0_408_6941">
<rect width="51.8819" height="51.8819" fill="white"/>
</clipPath>
</defs>
</svg>
