<svg width="52" height="52" viewBox="0 0 52 52" fill="none" xmlns="http://www.w3.org/2000/svg">
<path d="M38.8163 44.9037L44.6206 24.3671C44.7115 24.0454 44.7266 23.707 44.6646 23.3785C44.6027 23.05 44.4654 22.7403 44.2635 22.4739C44.0617 22.2074 43.8008 21.9913 43.5013 21.8427C43.2019 21.6941 42.872 21.617 42.5377 21.6174H30.1293C29.9514 21.6174 29.7758 21.5773 29.6156 21.5C29.4554 21.4227 29.3147 21.3103 29.2039 21.1711C29.0932 21.0319 29.0153 20.8695 28.976 20.696C28.9367 20.5225 28.9371 20.3423 28.9771 20.169L29.5175 17.83C30.0126 15.6845 30.1715 13.4741 29.9888 11.2799L29.8894 10.0877C29.7828 8.80871 29.2264 7.60887 28.3189 6.70134C27.4885 5.87143 26.3627 5.40495 25.1886 5.4043H24.9292C24.2191 5.4043 23.5652 5.78909 23.2215 6.40951L20.3474 11.5815C19.0591 13.9011 17.1384 15.8072 14.809 17.0777L7.6115 21.0013C7.27027 21.1875 6.98555 21.4623 6.78735 21.7967C6.58914 22.1311 6.48477 22.5127 6.48523 22.9015V44.3157C6.48523 44.889 6.71299 45.4389 7.11839 45.8443C7.5238 46.2497 8.07365 46.4774 8.64698 46.4774H36.7356C37.2063 46.4773 37.6641 46.3235 38.0395 46.0395C38.4148 45.7555 38.6883 45.3567 38.8163 44.9037Z" stroke="white" stroke-width="4.32349" stroke-linecap="round" stroke-linejoin="round"/>
</svg>
